#N canvas 708 23 572 732 12;
#X floatatom 15 70 5 0 0 0 - - -;
#X floatatom 59 71 5 0 0 0 - - -;
#X obj 23 41 notein;
#X obj 15 97 pack 0 0;
#X obj 16 153 pack 0 0 0;
#X obj 17 179 route 1 2 3 4 5 6;
#X obj 12 207 s voice-note-1;
#X obj 13 231 s voice-note-2;
#X obj 13 254 s voice-note-3;
#X obj 120 207 s voice-note-4;
#X obj 121 231 s voice-note-5;
#X obj 122 254 s voice-note-6;
#X obj 237 207 voice 1;
#X obj 297 207 voice 2;
#X obj 357 207 voice 3;
#X obj 237 233 voice 4;
#X obj 297 232 voice 5;
#X obj 358 231 voice 6;
#X obj 236 119 dac~;
#X obj 302 321 vsl 15 128 0 4 0 0 power_snd empty Power 0 -9 0 10 -262144
-1 -1 0 1;
#X floatatom 295 471 5 0 0 0 - - -;
#X obj 30 319 vsl 15 128 1.5 6000 1 0 amp-a empty A 0 -9 0 10 -262144
-1 -1 0 1;
#X text 47 282 Amp;
#X floatatom 13 467 5 0 0 0 - - -;
#X obj 352 323 vsl 15 128 1 22 0 0 npartials-snd empty Num._partials
0 -9 0 10 -262144 -1 -1 12700 1;
#X floatatom 346 472 5 0 0 0 - - -;
#X obj 72 318 vsl 15 128 1 6000 1 0 amp-d empty D 0 -9 0 10 -262144
-1 -1 0 1;
#X floatatom 55 466 5 0 0 0 - - -;
#X obj 115 320 vsl 15 128 0 100 0 0 amp-s empty S 0 -9 0 10 -262144
-1 -1 12700 1;
#X floatatom 98 466 5 0 0 0 - - -;
#X obj 158 320 vsl 15 128 1 6000 1 0 amp-r empty R 0 -9 0 10 -262144
-1 -1 0 1;
#X floatatom 140 468 5 0 0 0 - - -;
#X obj 444 326 vsl 15 128 0 10 0 1 spread-snd spread-rcv Spread 0 -9
0 10 -262144 -1 -1 3400 1;
#X floatatom 430 470 5 0 0 0 - - -;
#X obj 496 327 vsl 15 128 -2 2 0 1 exp-snd exp-rcv Exponent 0 -9 0
10 -262144 -1 -1 5100 1;
#X floatatom 483 471 5 0 0 0 - - -;
#X obj 468 535 s exp-rcv;
#X msg 473 503 1;
#X msg 508 503 -1;
#X obj 196 320 vsl 15 128 0 1 0 0 amp-vel-snd empty Vel._amt 0 -9 0
10 -262144 -1 -1 0 1;
#X floatatom 183 467 5 0 0 0 - - -;
#X obj 255 304 bng 15 250 50 0 empty empty empty 17 7 0 10 -262144
-1 -1;
#X text 19 502 Power;
#X obj 15 532 vsl 15 128 1.5 6000 1 0 pwr-a empty A 0 -9 0 10 -262144
-1 -1 0 1;
#X obj 57 532 vsl 15 128 1 6000 1 0 pwr-d empty D 0 -9 0 10 -262144
-1 -1 0 1;
#X obj 102 532 vsl 15 128 0 100 0 0 pwr-s empty S 0 -9 0 10 -262144
-1 -1 12700 1;
#X obj 149 533 vsl 15 128 1 6000 1 0 pwr-r empty R 0 -9 0 10 -262144
-1 -1 0 1;
#X obj 196 532 vsl 15 128 0 1 0 0 pwr-vel empty Vel._amt 0 -9 0 10
-262144 -1 -1 0 1;
#X floatatom 4 673 5 0 0 0 - - -;
#X floatatom 48 674 5 0 0 0 - - -;
#X floatatom 91 673 5 0 0 0 - - -;
#X floatatom 136 674 5 0 0 0 - - -;
#X floatatom 185 675 5 0 0 0 - - -;
#X obj 249 533 vsl 15 128 -2.5 2.5 0 0 pwr-env-amt pwr-env-amt-rcv
Env._amt 0 -9 0 10 -262144 -1 -1 6350 1;
#X floatatom 238 676 5 0 0 0 - - -;
#X msg 281 590 0;
#X obj 279 627 s pwr-env-amt-rcv;
#X obj 310 517 bng 15 250 50 0 empty empty empty 17 7 0 10 -262144
-1 -1;
#X obj 16 125 poly 6 1;
#X obj 237 68 catch~ outs1;
#X obj 329 68 catch~ outs2;
#X obj 236 93 *~ 1;
#X obj 329 91 *~ 1;
#X obj 436 27 vsl 15 128 0.01 1 0 1 empty empty Volume 0 -9 0 10 -262144
-1 -1 12700 1;
#X floatatom 423 169 5 0 0 0 - - -;
#X obj 460 238 bng 15 250 50 0 empty empty empty 17 7 0 10 -262144
-1 -1;
#X obj 449 264 s phase-reset;
#X connect 0 0 3 0;
#X connect 1 0 3 1;
#X connect 2 0 0 0;
#X connect 2 1 1 0;
#X connect 3 0 58 0;
#X connect 4 0 5 0;
#X connect 5 0 6 0;
#X connect 5 1 7 0;
#X connect 5 2 8 0;
#X connect 5 3 9 0;
#X connect 5 4 10 0;
#X connect 5 5 11 0;
#X connect 19 0 20 0;
#X connect 21 0 23 0;
#X connect 24 0 25 0;
#X connect 26 0 27 0;
#X connect 28 0 29 0;
#X connect 30 0 31 0;
#X connect 32 0 33 0;
#X connect 34 0 35 0;
#X connect 37 0 36 0;
#X connect 38 0 36 0;
#X connect 39 0 40 0;
#X connect 41 0 21 0;
#X connect 41 0 26 0;
#X connect 41 0 28 0;
#X connect 41 0 30 0;
#X connect 41 0 39 0;
#X connect 41 0 19 0;
#X connect 41 0 24 0;
#X connect 41 0 32 0;
#X connect 41 0 34 0;
#X connect 41 0 57 0;
#X connect 43 0 48 0;
#X connect 44 0 49 0;
#X connect 45 0 50 0;
#X connect 46 0 51 0;
#X connect 47 0 52 0;
#X connect 53 0 54 0;
#X connect 55 0 56 0;
#X connect 57 0 53 0;
#X connect 57 0 47 0;
#X connect 57 0 46 0;
#X connect 57 0 45 0;
#X connect 57 0 44 0;
#X connect 57 0 43 0;
#X connect 58 0 4 0;
#X connect 58 1 4 1;
#X connect 58 2 4 2;
#X connect 59 0 61 0;
#X connect 60 0 62 0;
#X connect 61 0 18 0;
#X connect 62 0 18 1;
#X connect 63 0 64 0;
#X connect 63 0 62 1;
#X connect 63 0 61 1;
#X connect 65 0 66 0;
