#N canvas 750 23 530 732 12;
#X floatatom 15 70 5 0 0 0 - - -;
#X floatatom 59 71 5 0 0 0 - - -;
#X obj 23 41 notein;
#X obj 15 97 pack 0 0;
#X obj 16 153 pack 0 0 0;
#X obj 17 179 route 1 2 3 4 5 6;
#X obj 12 207 s voice-note-1;
#X obj 13 231 s voice-note-2;
#X obj 13 254 s voice-note-3;
#X obj 120 207 s voice-note-4;
#X obj 121 231 s voice-note-5;
#X obj 122 254 s voice-note-6;
#X obj 14 278 voice 1;
#X obj 74 278 voice 2;
#X obj 134 278 voice 3;
#X obj 14 304 voice 4;
#X obj 74 303 voice 5;
#X obj 135 302 voice 6;
#X obj 139 51 catch~ outs;
#X obj 138 124 dac~;
#X obj 139 84 *~ 0.75;
#X obj 240 370 vsl 15 128 0.5 4 0 0 power_snd empty Power 0 -9 0 10
-262144 -1 -1 12100 1;
#X floatatom 233 520 5 0 0 0 - - -;
#X obj 31 371 vsl 15 128 1.5 6000 0 0 amp-a empty A 0 -9 0 10 -262144
-1 -1 31 1;
#X text 48 334 Amp;
#X floatatom 14 519 5 0 0 0 - - -;
#X obj 290 372 vsl 15 128 1 22 0 0 npartials-snd empty Num._partials
0 -9 0 10 -262144 -1 -1 12700 1;
#X floatatom 284 521 5 0 0 0 - - -;
#X obj 73 370 vsl 15 128 1 6000 0 0 amp-d empty D 0 -9 0 10 -262144
-1 -1 0 1;
#X floatatom 56 518 5 0 0 0 - - -;
#X obj 115 372 vsl 15 128 0 100 0 0 amp-s empty S 0 -9 0 10 -262144
-1 -1 12700 1;
#X floatatom 99 518 5 0 0 0 - - -;
#X obj 159 372 vsl 15 128 1 6000 0 0 amp-r empty R 0 -9 0 10 -262144
-1 -1 63 1;
#X floatatom 142 520 5 0 0 0 - - -;
#X obj 381 375 vsl 15 128 0 10 0 1 spread-snd spread-rcv Spread 0 -9
0 10 -262144 -1 -1 1000 1;
#X floatatom 368 519 5 0 0 0 - - -;
#X obj 434 376 vsl 15 128 -2 2 0 1 exp-snd exp-rcv Exponent 0 -9 0
10 -262144 -1 -1 12700 1;
#X floatatom 421 520 5 0 0 0 - - -;
#X obj 406 584 s exp-rcv;
#X msg 411 552 1;
#X msg 446 552 -1;
#X obj 16 125 poly 6 1;
#X connect 0 0 3 0;
#X connect 1 0 3 1;
#X connect 2 0 0 0;
#X connect 2 1 1 0;
#X connect 3 0 41 0;
#X connect 4 0 5 0;
#X connect 5 0 6 0;
#X connect 5 1 7 0;
#X connect 5 2 8 0;
#X connect 5 3 9 0;
#X connect 5 4 10 0;
#X connect 5 5 11 0;
#X connect 18 0 20 0;
#X connect 20 0 19 0;
#X connect 20 0 19 1;
#X connect 21 0 22 0;
#X connect 23 0 25 0;
#X connect 26 0 27 0;
#X connect 28 0 29 0;
#X connect 30 0 31 0;
#X connect 32 0 33 0;
#X connect 34 0 35 0;
#X connect 36 0 37 0;
#X connect 39 0 38 0;
#X connect 40 0 38 0;
#X connect 41 0 4 0;
#X connect 41 1 4 1;
#X connect 41 2 4 2;
