#N canvas 93 44 622 594 12;
#X obj 146 30 inlet;
#X obj 156 372 osc~ 300;
#X obj 375 527 outlet~;
#X obj 145 97 mtof;
#X obj 338 429 *~;
#X obj 366 174 / \$1;
#X obj 351 121 float 1;
#X obj 354 78 t b;
#X obj 145 65 unpack 0 0;
#X obj 345 455 *~ 0.3;
#X obj 351 41 loadbang;
#X obj 460 112 r power_snd;
#X obj 418 163 t b f;
#X obj 369 216 f;
#X obj 437 190 pack 2 100;
#X obj 360 252 pow~;
#X obj 446 221 line~;
#X obj 445 316 r npartials-snd;
#X obj 373 491 *~;
#X obj 433 346 t b f;
#X obj 432 372 f \$1;
#X obj 436 463 line~;
#X obj 436 429 pack 0 10;
#X obj 142 182 r spread-snd;
#X obj 45 374 osc~ 300;
#X obj 44 336 +;
#X obj 155 338 -;
#X obj 140 220 t b f;
#X obj 98 420 +~;
#X obj 41 289 * \$1;
#X obj 440 401 <= 22;
#X obj 424 294 loadbang;
#X obj 436 81 loadbang;
#X obj 226 257 f \$1;
#X obj 252 176 r exp-snd;
#X obj 254 207 t b f;
#X obj 248 290 pow;
#X obj 145 300 *;
#X connect 0 0 7 0;
#X connect 0 0 8 0;
#X connect 1 0 28 1;
#X connect 3 0 29 0;
#X connect 4 0 9 0;
#X connect 5 0 13 0;
#X connect 6 0 5 0;
#X connect 7 0 6 0;
#X connect 8 0 3 0;
#X connect 9 0 18 0;
#X connect 10 0 7 0;
#X connect 11 0 12 0;
#X connect 12 0 13 0;
#X connect 12 1 14 0;
#X connect 13 0 15 0;
#X connect 14 0 16 0;
#X connect 15 0 4 1;
#X connect 16 0 15 1;
#X connect 17 0 19 0;
#X connect 18 0 2 0;
#X connect 19 0 20 0;
#X connect 19 1 30 1;
#X connect 20 0 30 0;
#X connect 21 0 18 1;
#X connect 22 0 21 0;
#X connect 23 0 27 0;
#X connect 24 0 28 0;
#X connect 25 0 24 0;
#X connect 26 0 1 0;
#X connect 27 0 29 0;
#X connect 27 0 37 0;
#X connect 27 1 37 0;
#X connect 28 0 4 0;
#X connect 29 0 25 0;
#X connect 29 0 26 0;
#X connect 30 0 22 0;
#X connect 31 0 19 0;
#X connect 32 0 12 0;
#X connect 33 0 36 0;
#X connect 34 0 35 0;
#X connect 35 0 33 0;
#X connect 35 0 29 0;
#X connect 35 0 37 0;
#X connect 35 0 26 0;
#X connect 35 0 25 0;
#X connect 35 1 36 1;
#X connect 36 0 37 1;
#X connect 37 0 25 1;
#X connect 37 0 26 1;
