#N canvas 111 33 1097 744 12;
#X obj 39 140 inlet;
#X obj 109 408 osc~ 300;
#X obj 41 201 mtof;
#X obj 254 296 / \$1;
#X obj 254 267 float 1;
#X obj 255 240 t b;
#X obj 41 170 unpack 0 0;
#X obj 257 211 loadbang;
#X obj 334 283 r power_snd;
#X obj 319 307 t b f;
#X obj 254 326 f;
#X obj 351 336 pack 2 100;
#X obj 268 440 pow~;
#X obj 346 363 line~;
#X obj 286 516 r npartials-snd;
#X obj 110 572 *~;
#X obj 279 543 t b f;
#X obj 279 569 f \$1;
#X obj 277 639 line~;
#X obj 278 614 pack 0 10;
#X obj 56 265 r spread-snd;
#X obj 40 408 osc~ 300;
#X obj 40 381 +;
#X obj 92 377 -;
#X obj 56 289 t b f;
#X obj 40 333 * \$1;
#X obj 278 591 <= 22;
#X obj 280 494 loadbang;
#X obj 319 259 loadbang;
#X obj 156 314 f \$1;
#X obj 157 264 r exp-snd;
#X obj 156 289 t b f;
#X obj 173 338 pow;
#X obj 106 340 *;
#X obj 312 419 clip~ 1.5 4;
#X obj 326 213 adsr 1 1 100 1;
#X obj 374 116 r pwr-a;
#X obj 420 189 r pwr-r;
#X obj 403 166 r pwr-s;
#X obj 389 141 r pwr-d;
#X obj 424 46 / 127;
#X obj 430 75 *;
#X obj 473 45 f 1;
#X obj 474 73 -;
#X obj 446 103 +;
#X obj 463 14 t b;
#X obj 522 24 r pwr-vel;
#X obj 345 389 +~;
#X obj 453 361 *~;
#X obj 492 351 r pwr-env-amt;
#X obj 452 271 *~;
#X obj 452 133 sel;
#X obj 407 8 t b;
#X obj 490 122 sel 0;
#X msg 487 155 1;
#X obj 110 513 *~;
#X obj 3 480 < 20000;
#X obj 110 482 +~;
#X obj 104 629 outlet~;
#X obj 172 632 outlet~;
#X obj 108 544 *~;
#X obj 110 602 *~ 1;
#X obj 172 604 *~ 1;
#X obj 173 573 *~;
#X obj 173 515 *~;
#X obj 173 484 +~;
#X obj 173 544 *~;
#X obj 180 396 osc~;
#X obj 179 422 *~ 0.5;
#X msg 186 374 0;
#X obj 208 351 r phase-reset;
#X connect 0 0 5 0;
#X connect 0 0 6 0;
#X connect 1 0 65 0;
#X connect 2 0 25 0;
#X connect 3 0 10 0;
#X connect 4 0 3 0;
#X connect 5 0 4 0;
#X connect 6 0 2 0;
#X connect 6 1 35 0;
#X connect 6 1 40 0;
#X connect 6 1 52 0;
#X connect 7 0 5 0;
#X connect 8 0 9 0;
#X connect 9 0 10 0;
#X connect 9 1 11 0;
#X connect 10 0 12 0;
#X connect 11 0 13 0;
#X connect 12 0 60 1;
#X connect 12 0 66 1;
#X connect 13 0 47 0;
#X connect 14 0 16 0;
#X connect 15 0 61 0;
#X connect 16 0 17 0;
#X connect 16 1 26 1;
#X connect 17 0 26 0;
#X connect 18 0 15 1;
#X connect 18 0 63 1;
#X connect 19 0 18 0;
#X connect 20 0 24 0;
#X connect 21 0 57 0;
#X connect 22 0 21 0;
#X connect 23 0 1 0;
#X connect 24 0 25 0;
#X connect 24 0 33 0;
#X connect 24 1 33 0;
#X connect 25 0 22 0;
#X connect 25 0 23 0;
#X connect 25 0 56 0;
#X connect 25 0 67 0;
#X connect 26 0 19 0;
#X connect 27 0 16 0;
#X connect 28 0 9 0;
#X connect 29 0 32 0;
#X connect 30 0 31 0;
#X connect 31 0 29 0;
#X connect 31 0 25 0;
#X connect 31 0 33 0;
#X connect 31 0 23 0;
#X connect 31 0 22 0;
#X connect 31 1 32 1;
#X connect 32 0 33 1;
#X connect 33 0 22 1;
#X connect 33 0 23 1;
#X connect 34 0 12 1;
#X connect 35 0 50 0;
#X connect 36 0 35 2;
#X connect 37 0 35 5;
#X connect 38 0 35 4;
#X connect 39 0 35 3;
#X connect 40 0 41 0;
#X connect 41 0 44 0;
#X connect 42 0 43 0;
#X connect 43 0 44 1;
#X connect 43 0 51 1;
#X connect 44 0 51 0;
#X connect 45 0 42 0;
#X connect 45 0 40 0;
#X connect 46 0 41 1;
#X connect 46 0 43 1;
#X connect 46 0 45 0;
#X connect 46 0 53 0;
#X connect 47 0 34 0;
#X connect 48 0 47 1;
#X connect 49 0 48 1;
#X connect 50 0 48 0;
#X connect 51 1 50 1;
#X connect 52 0 40 0;
#X connect 53 0 54 0;
#X connect 54 0 50 1;
#X connect 55 0 60 0;
#X connect 56 0 55 1;
#X connect 56 0 64 1;
#X connect 57 0 55 0;
#X connect 60 0 15 0;
#X connect 61 0 58 0;
#X connect 62 0 59 0;
#X connect 63 0 62 0;
#X connect 64 0 66 0;
#X connect 65 0 64 0;
#X connect 66 0 63 0;
#X connect 67 0 68 0;
#X connect 68 0 65 1;
#X connect 68 0 57 1;
#X connect 69 0 67 1;
#X connect 69 0 1 1;
#X connect 69 0 21 1;
#X connect 70 0 69 0;
