#N canvas 229 29 389 390 12;
#X obj 104 28 r voice-note-\$1;
#X obj 98 69 unpack 0 0;
#X obj 72 316 throw~ outs;
#X obj 81 244 *~;
#X obj 76 281 *~ 0.1;
#X msg 63 119 all \$1 \$2;
#X obj 19 185 clone -s 1 partial 22;
#X obj 213 69 r amp-a;
#X obj 237 95 r amp-d;
#X obj 260 121 r amp-s;
#X obj 284 147 r amp-r;
#X obj 190 179 adsr 1 1 1 100 20;
#X obj 179 211 pow~ 2;
#X connect 0 0 1 0;
#X connect 0 0 5 0;
#X connect 1 1 11 0;
#X connect 3 0 4 0;
#X connect 4 0 2 0;
#X connect 5 0 6 0;
#X connect 6 0 3 0;
#X connect 7 0 11 2;
#X connect 8 0 11 3;
#X connect 9 0 11 4;
#X connect 10 0 11 5;
#X connect 11 0 12 0;
#X connect 12 0 3 1;
