#N canvas 92 23 657 597 12;
#X obj 104 28 r voice-note-\$1;
#X obj 98 69 unpack 0 0;
#X obj 58 310 *~;
#X msg 63 119 all \$1 \$2;
#X obj 20 186 clone -s 1 partial 22;
#X obj 230 167 r amp-a;
#X obj 254 193 r amp-d;
#X obj 277 219 r amp-s;
#X obj 300 244 r amp-r;
#X obj 178 270 adsr 1 1 1 100 20;
#X obj 239 399 pow~ 2;
#X obj 316 120 / 127;
#X obj 336 158 *;
#X obj 394 106 f 1;
#X obj 412 158 -;
#X obj 375 204 +;
#X obj 352 74 t b;
#X obj 411 33 r amp-vel-snd;
#X obj 332 336 *~;
#X obj 365 287 sel;
#X obj 251 71 t b;
#X obj 501 216 sel 0;
#X msg 452 301 1;
#X obj 53 347 *~ 0.7;
#X obj 98 312 *~;
#X obj 109 346 *~ 0.7;
#X obj 13 384 throw~ outs1;
#X obj 109 387 throw~ outs2;
#X connect 0 0 1 0;
#X connect 0 0 3 0;
#X connect 1 1 9 0;
#X connect 1 1 11 0;
#X connect 1 1 20 0;
#X connect 2 0 23 0;
#X connect 3 0 4 0;
#X connect 4 0 2 0;
#X connect 4 1 24 0;
#X connect 5 0 9 2;
#X connect 6 0 9 3;
#X connect 7 0 9 4;
#X connect 8 0 9 5;
#X connect 9 0 18 0;
#X connect 10 0 2 1;
#X connect 10 0 24 1;
#X connect 11 0 12 0;
#X connect 12 0 15 0;
#X connect 13 0 14 0;
#X connect 14 0 15 1;
#X connect 14 0 19 1;
#X connect 15 0 19 0;
#X connect 16 0 13 0;
#X connect 16 0 11 0;
#X connect 17 0 12 1;
#X connect 17 0 14 1;
#X connect 17 0 16 0;
#X connect 17 0 21 0;
#X connect 18 0 10 0;
#X connect 19 1 18 1;
#X connect 20 0 11 0;
#X connect 21 0 22 0;
#X connect 22 0 18 1;
#X connect 23 0 26 0;
#X connect 24 0 25 0;
#X connect 25 0 27 0;
